<svg width="40" height="41" xmlns="http://www.w3.org/2000/svg" xmlns:xlink="http://www.w3.org/1999/xlink" overflow="hidden"><defs><clipPath id="clip0"><rect x="169" y="26" width="40" height="41"/></clipPath><radialGradient cx="0" cy="0" r="511875" gradientUnits="userSpaceOnUse" spreadMethod="pad" id="fill1" gradientTransform="matrix(0.000104987 0 0 0.000104987 170.5 27.5001)"><stop offset="0" stop-color="#0D97FF"/><stop offset="0.43" stop-color="#0070C0"/><stop offset="1" stop-color="#0070C0"/></radialGradient></defs><g clip-path="url(#clip0)" transform="translate(-169 -26)"><path d="M170.5 33.8335C170.5 30.3356 173.336 27.5001 176.833 27.5001L202.167 27.5001C205.664 27.5001 208.5 30.3356 208.5 33.8335L208.5 59.1666C208.5 62.6645 205.664 65.5001 202.167 65.5001L176.833 65.5001C173.336 65.5001 170.5 62.6645 170.5 59.1666Z" stroke="#0070C0" stroke-width="1.33333" stroke-miterlimit="8" fill="url(#fill1)" fill-rule="evenodd"/><rect x="185.5" y="38.5001" width="19" height="10" stroke="#131313" stroke-miterlimit="8" fill="#E8E8E8"/><rect x="194" y="48" width="2" height="5" fill="#131313"/><rect x="190" y="52" width="9" height="1" fill="#131313"/><rect x="175.5" y="38.5001" width="7" height="16" stroke="#000000" stroke-width="1.33333" stroke-miterlimit="8"/><path d="M178.5 55.427 178.5 55.6023 182.47 55.6023 182.47 53.5001 190.284 53.5001" stroke="#131313" stroke-width="0.333333" stroke-miterlimit="8" stroke-opacity="0.6" fill="none" fill-rule="evenodd"/></g></svg>