<svg width="40" height="41" xmlns="http://www.w3.org/2000/svg" xmlns:xlink="http://www.w3.org/1999/xlink" overflow="hidden"><defs><clipPath id="clip0"><rect x="76" y="26" width="40" height="41"/></clipPath><radialGradient cx="0" cy="0" r="511875" gradientUnits="userSpaceOnUse" spreadMethod="pad" id="fill1" gradientTransform="matrix(0.000104987 0 0 0.000104987 77.5001 27.5001)"><stop offset="0" stop-color="#FFFF00"/><stop offset="0.43" stop-color="#FFC000"/><stop offset="1" stop-color="#FFC000"/></radialGradient></defs><g clip-path="url(#clip0)" transform="translate(-76 -26)"><path d="M77.5001 33.8335C77.5001 30.3356 80.3356 27.5001 83.8335 27.5001L109.167 27.5001C112.664 27.5001 115.5 30.3356 115.5 33.8335L115.5 59.1666C115.5 62.6645 112.664 65.5001 109.167 65.5001L83.8335 65.5001C80.3356 65.5001 77.5001 62.6645 77.5001 59.1666Z" stroke="#FF9900" stroke-width="1.33333" stroke-miterlimit="8" fill="url(#fill1)" fill-rule="evenodd"/><path d="M6.48631 2.82495C4.46419 2.82495 2.82495 4.46418 2.82495 6.4863 2.82495 8.50842 4.46419 10.1477 6.48631 10.1477 8.50843 10.1477 10.1477 8.50842 10.1477 6.4863 10.1477 4.46418 8.50843 2.82495 6.48631 2.82495ZM6.48631 0C9.62082 0 12.236 2.22339 12.8408 5.17908L12.8621 5.3898 32.364 5.3898 32.364 8.08949 30.5988 8.08949 30.5988 11.824 28.4029 11.824 28.4029 8.08949 26.4013 8.08949 26.4013 10.9485 24.2054 10.9485 24.2054 8.08949 12.749 8.08949 12.4629 9.01106C11.4782 11.3391 9.17304 12.9726 6.48631 12.9726 2.90402 12.9726 0 10.0686 0 6.4863 0 2.90401 2.90402 0 6.48631 0Z" stroke="#D9D9D9" stroke-width="0.333333" stroke-miterlimit="8" fill="#FFFFFF" fill-rule="evenodd" transform="matrix(-0.853956 0.520346 0.520346 0.853956 106.147 32.241)"/></g></svg>