<?xml version='1.0' encoding='UTF-8' standalone='no'?>
<!DOCTYPE svg PUBLIC '-//W3C//DTD SVG 1.1//EN' 'http://www.w3.org/Graphics/SVG/1.1/DTD/svg11.dtd'>
<!-- Animated using aniGen version 0.8.1 Quality of Life - http://anigen.org -->
<svg version="1.1" xmlns="http://www.w3.org/2000/svg" xmlns:xlink="http://www.w3.org/1999/xlink" width="119.766px" height="112.724px" viewBox="0 0 119.766 112.724" id="svg7235" preserveAspectRatio="xMidYMid" xmlns:svg="http://www.w3.org/2000/svg" xmlns:sodipodi="http://sodipodi.sourceforge.net/DTD/sodipodi-0.dtd" xmlns:inkscape="http://www.inkscape.org/namespaces/inkscape" xmlns:anigen="http://www.anigen.org/namespace" anigen:version="0.8.1"><defs id="defs3118"></defs><sodipodi:namedview id="base" bordercolor="#666666" borderopacity="1" inkscape:cx="57.65076416572971" inkscape:cy="-69.20424801218277" inkscape:zoom="5.656854249492381"></sodipodi:namedview><g transform="translate(-180.11687,-126.29122)" id="g7451"><g data-paper-data="{&quot;isPaintingLayer&quot;:true}" fill-rule="evenodd" stroke="none" stroke-width="1" stroke-linecap="butt" stroke-linejoin="miter" stroke-miterlimit="10" stroke-dasharray="" stroke-dashoffset="0" style="mix-blend-mode: normal" id="g3682"><path d="M 242.70963 200.56586 L 243.75207 202.65075 L 239.09286 207.58539 C 233.84463 209.4033 228.39935 208.49435 222.90323 206.82050999999998 L 217.41135 203.13806 C 215.87947 195.5634 216.3689 189.30875 219.00891 183.81898999999999 C 221.58323 178.40125999999998 226.30389 174.71668999999997 233.11577999999997 172.90936 L 233.32764999999998 174.71669 Z" fill="#590000" id="path5337"><animateTransform attributeName="transform" attributeType="auto" type="rotate" values="0 216.54754638671875 172.90936279296875;-5 216.54754638671875 172.90936279296875;0 216.54754638671875 172.90936279296875" calcMode="spline" keyTimes="0;0.5;1" keySplines=".5 0 .5 1;.25 0 .75 1" dur="2s" begin="0s" repeatCount="indefinite" additive="sum" accumulate="none" fill="freeze" id="animateTransform2797"></animateTransform><animateTransform attributeName="transform" attributeType="auto" type="translate" values="0 0;3 -3;0 0" calcMode="spline" keyTimes="0;0.5;1" keySplines=".5 0 .5 1;.25 0 .75 1" dur="2s" begin="0s" repeatCount="indefinite" additive="sum" accumulate="none" fill="freeze" id="animateTransform8283"></animateTransform></path><path d="M 270.3375 226.80592 C 263.74172 223.81843999999998 258.03796 219.51094999999998 253.38298999999998 214.57842 L 251.1142717260555 212.13671242019902 L 252.06298999999999 199.22146 L 252.06298999999999 199.22146 L 252.06298999999999 199.22146 C 258.87064 202.07122 265.89441 203.39123 273.18939 202.55643 C 280.76193 201.51399 286.25382 198.38666 289.58878 192.96681 L 293.54879 183.79247 C 295.35611 191.92224000000002 294.926 199.75116 291.95122 207.76652 C 289.22857999999997 215.11234000000002 284.81728 220.96655 278.95671 225.76771000000002 C 277.50746 226.94575000000003 275.81667999999996 228.07082000000003 273.74239 227.84836 C 272.56223 227.72547 271.4202 227.29959000000002 270.3375 226.80592000000001 Z" fill="#5000ff" id="path5776" sodipodi:nodetypes="ccccccccccccc" style="fill-opacity: 1;"><animateTransform attributeName="transform" attributeType="auto" type="rotate" values="0 252.06298828125 183.79246520996094;7.65 252.06298828125 183.79246520996094;0 252.06298828125 183.79246520996094" calcMode="spline" keyTimes="0;0.5;1" keySplines=".5 0 .5 1;.25 0 .75 1" dur="2s" begin="0s" repeatCount="indefinite" additive="sum" accumulate="none" fill="freeze" id="animateTransform8244"></animateTransform><animateTransform attributeName="transform" attributeType="auto" type="translate" values="0 0;-8 2;0 0" calcMode="spline" keyTimes="0;0.5;1" keySplines=".5 0 .5 1;.25 0 .75 1" dur="2s" begin="0s" repeatCount="indefinite" additive="sum" accumulate="none" fill="freeze" id="animateTransform2450"></animateTransform><animate attributeType="auto" attributeName="d" values="M 270.3375 226.80592 C 263.74172 223.81843999999998 258.03796 219.51094999999998 253.38298999999998 214.57842 L 251.1142717260555 212.13671242019902 L 252.06298999999999 199.22146 L 252.06298999999999 199.22146 L 252.06298999999999 199.22146 C 258.87064 202.07122 265.89441 203.39123 273.18939 202.55643 C 280.76193 201.51399 286.25382 198.38666 289.58878 192.96681 L 293.54879 183.79247 C 295.35611 191.92224000000002 294.926 199.75116 291.95122 207.76652 C 289.22857999999997 215.11234000000002 284.81728 220.96655 278.95671 225.76771000000002 C 277.50746 226.94575000000003 275.81667999999996 228.07082000000003 273.74239 227.84836 C 272.56223 227.72547 271.4202 227.29959000000002 270.3375 226.80592000000001 Z;M 270.3375 226.80592 C 263.74172 223.81843999999998 258.03796 219.51094999999998 253.38298999999998 214.57842 L 251.1142717260555 212.13671242019902 L 252.06298999999999 199.22146 L 252.06298999999999 199.22146 L 252.06298999999999 199.22146 C 258.87064 202.07122 265.89441 203.39123 273.18939 202.55643 C 280.76193 201.51399 286.25382 198.38666 289.58878 192.96681 L 293.54879 183.79247 C 295.35611 191.92224000000002 294.926 199.75116 291.95122 207.76652 C 289.22857999999997 215.11234000000002 284.81728 220.96655 278.95671 225.76771000000002 C 277.50746 226.94575000000003 275.81667999999996 228.07082000000003 273.74239 227.84836 C 272.56223 227.72547 271.4202 227.29959000000002 270.3375 226.80592000000001 Z" calcMode="spline" keyTimes="0;1" keySplines="0 0 1 1" dur="1s" begin="0.9999970197677612s" repeatCount="1" additive="replace" accumulate="none" fill="remove" id="animate7462"></animate></path><path d="M 239.09287 207.28132 L 243.75208 202.34667 C 249.04799304294204 200.88656580468708 254.35129390184113 206.7201967494761 253.68706 214.57842 C 253.1277 221.59795 252.36918 226.93305999999998 250.55761 230.77229 C 250.03215 231.88676999999998 249.37109 233.24278999999999 248.19516000000002 233.61993999999999 C 246.3836 234.19836999999998 244.21184000000002 234.17082 242.49775000000002 233.34238 C 230.89740000000003 227.74667 222.90324000000004 216.94298999999998 217.41135000000003 202.83400999999998 L 222.90323000000004 206.51645999999997 C 228.60276000000005 208.13097999999997 234.14338000000004 209.15646999999996 239.09286000000003 207.28133999999997 Z" fill="#000000" id="path683"><animateTransform attributeName="transform" attributeType="auto" type="rotate" values="0 217.41134643554688 202.34666442871094;-10 217.41134643554688 202.34666442871094;0 217.41134643554688 202.34666442871094" calcMode="spline" keyTimes="0;0.5;1" keySplines=".5 0 .5 1;.25 0 .75 1" dur="2s" begin="0s" repeatCount="indefinite" additive="sum" accumulate="none" fill="freeze" id="animateTransform9725"></animateTransform><animateTransform attributeName="transform" attributeType="auto" type="translate" values="0 0;3 -4.8;0 0" calcMode="spline" keyTimes="0;0.5;1" keySplines=".5 0 .5 1;.25 0 .75 1" dur="2s" begin="0s" repeatCount="indefinite" additive="sum" accumulate="none" fill="freeze" id="animateTransform4411"></animateTransform></path><path d="M 268.53018 167.14203 C 280.20468 169.22692 288.54420999999996 174.99636 293.54666 184.09866 L 289.58666 193.273 C 286.25169 198.69285 280.7598 201.82018 273.18726 202.86262 C 265.89016 203.69742 258.86852 202.37742 252.06086999999997 199.52765 L 251.57354999999995 197.92797 L 251.29597999999996 196.39820999999998 C 249.21109999999996 187.98874999999998 245.52864999999997 179.44369999999998 240.10667999999995 170.26935999999998 C 249.21108999999996 166.65471999999997 258.59306999999995 165.61227999999997 268.53016999999994 167.14203999999998 Z" fill="#bd754e" id="path684"><animateTransform attributeName="transform" attributeType="auto" type="rotate" values="0 240.10667419433594 166.45970153808594;7.65 240.10667419433594 166.45970153808594;0 240.10667419433594 166.45970153808594" calcMode="spline" keyTimes="0;0.5;1" keySplines=".5 0 .5 1;.25 0 .75 1" dur="2s" begin="0s" repeatCount="indefinite" additive="sum" accumulate="none" fill="freeze" id="animateTransform6042"></animateTransform><animateTransform attributeName="transform" attributeType="auto" type="translate" values="0 0;-5 0;0 0" calcMode="spline" keyTimes="0;0.5;1" keySplines=".5 0 .5 1;.25 0 .75 1" dur="2s" begin="0s" repeatCount="indefinite" additive="sum" accumulate="none" fill="freeze" id="animateTransform4828"></animateTransform></path><path d="M 192.21372 145.07385 C 207.38634 149.11649 220.84698 157.30347999999998 232.5914 168.00546 L 233.42408 173.21767 C 226.61219 175.02499 221.89154 178.70744 219.31722 184.12729 C 216.67721 189.61705999999998 216.18778 195.87170999999998 217.71966 203.44637 C 202.63816 191.70195 190.81533000000002 176.09922 182.27451000000002 157.0238 C 179.83367 151.57004999999998 179.30398000000002 147.39604 181.51387000000003 146.11418 C 185.07978000000003 144.03989 188.94021000000004 144.19668000000001 192.21373000000003 145.07386 Z" fill="#de0000" id="path7227"><animateTransform attributeName="transform" attributeType="auto" type="rotate" values="0 180.11688232421875 144.4617462158203;-5 180.11688232421875 144.4617462158203;0 180.11688232421875 144.4617462158203" calcMode="spline" keyTimes="0;0.5;1" keySplines=".5 0 .5 1;.25 0 .75 1" dur="2s" begin="0s" repeatCount="indefinite" additive="sum" accumulate="none" fill="freeze" id="animateTransform1692"></animateTransform></path><path d="M 239.55368 170.11685 L 237.74423000000002 166.71196 C 242.19367000000003 151.35289 254.94876000000002 138.64018000000002 275.82938 128.42129 C 281.07761 125.85332 286.0059 125.32151 290.14389 128.42129 C 292.25844 130.00614 294.15052 132.04654 295.35822 134.39627 C 302.1807 147.67045 301.05563 164.62707999999998 293.54878 184.71104 C 288.54421 175.60874 280.20679 169.8393 268.53229000000005 167.75441 C 258.59307000000007 166.22465 249.21109000000004 167.26709 240.10668000000004 170.88173 Z" fill="#fdff00" id="path7812"><animateTransform attributeName="transform" attributeType="auto" type="rotate" values="0 237.74423217773438 126.29122924804688;7.653345459840047 237.74423217773438 126.29122924804688;0 237.74423217773438 126.29122924804688" calcMode="spline" keyTimes="0;0.5;1" keySplines=".5 0 .5 1;.25 0 .75 1" dur="2s" begin="0s" repeatCount="indefinite" additive="sum" accumulate="none" fill="freeze" id="animateTransform1220" transform="matrix(1 0 0 1 180.1168670654297 126.29122161865234)"></animateTransform></path><path d="M 251.57566 197.92797 L 252.06298 200.29041999999998 L 253.38298 214.88460999999998 C 249.97809 211.75516 246.5732 207.58750999999998 243.448 202.65285999999998 L 242.40556 200.56797999999998 L 233.02358 174.71668999999997 L 232.8117 172.90935999999996 L 231.97902 167.69714999999997 L 231.97902 166.93438999999998 C 231.48958 164.84950999999998 232.06165 163.91724999999997 233.29901999999998 163.37270999999998 C 234.47706 162.84937 235.37966999999998 163.24981999999997 236.69967 165.05713999999998 L 239.55155 169.50446999999997 L 240.10666999999998 170.26934999999997 C 245.52651999999998 179.44368999999998 249.21107999999998 187.98873999999998 251.29596999999998 196.39819999999997 Z" fill="#62ff4f" id="path7435"><animateTransform attributeName="transform" attributeType="auto" type="translate" values="0 0;-0.95 -2.2;0 0" calcMode="spline" keyTimes="0;0.5;1" keySplines=".25 0 .75 1;.5 0 .5 1" dur="2s" begin="0s" repeatCount="indefinite" additive="sum" accumulate="none" fill="freeze" id="animateTransform2946"></animateTransform></path></g><animateTransform attributeName="transform" attributeType="auto" type="translate" values="0 5;0 0;0 5" calcMode="spline" keyTimes="0;0.5;1" keySplines=".5 0 .5 1;.25 0 .75 1" dur="2s" begin="0s" repeatCount="indefinite" additive="sum" accumulate="none" fill="freeze" id="animateTransform5376"></animateTransform></g></svg>