<svg version="1.1" xmlns="http://www.w3.org/2000/svg" xmlns:xlink="http://www.w3.org/1999/xlink" width="119.76627" height="107.72374" viewBox="0,0,119.76627,107.72374"><g transform="translate(-180.11687,-126.29122)"><g data-paper-data="{&quot;isPaintingLayer&quot;:true}" fill-rule="evenodd" stroke="none" stroke-width="1" stroke-linecap="butt" stroke-linejoin="miter" stroke-miterlimit="10" stroke-dasharray="" stroke-dashoffset="0" style="mix-blend-mode: normal"><path d="M192.21372,145.07385c15.17262,4.04264 28.63326,12.22963 40.37768,22.93161l0.83268,5.21221c-6.81189,1.80732 -11.53254,5.48977 -14.10686,10.90962c-2.64001,5.48977 -3.12944,11.74442 -1.59756,19.31908c-15.0815,-11.74442 -26.90433,-27.34715 -35.44515,-46.42257c-2.44084,-5.45375 -2.97053,-9.62776 -0.76064,-10.90962c3.56591,-2.07429 7.42634,-1.9175 10.69986,-1.04032z" fill="#de0000"/><path d="M268.53018,167.14203c11.6745,2.08489 20.01403,7.85433 25.01648,16.95663l-3.96,9.17434c-3.33497,5.41985 -8.82686,8.54718 -16.3994,9.58962c-7.2971,0.8348 -14.31874,-0.4852 -21.12639,-3.33497l-0.48732,-1.59968l-0.27757,-1.52976c-2.08488,-8.40946 -5.76733,-16.95451 -11.1893,-26.12885c9.10441,-3.61464 18.48639,-4.65708 28.42349,-3.12732z" fill="#bd754e"/><path d="M239.55368,170.11685l-1.80945,-3.40489c4.44944,-15.35907 17.20453,-28.07178 38.08515,-38.29067c5.24823,-2.56797 10.17652,-3.09978 14.31451,0c2.11455,1.58485 4.00663,3.62525 5.21433,5.97498c6.82248,13.27418 5.69741,30.23081 -1.80944,50.31477c-5.00457,-9.1023 -13.34199,-14.87174 -25.01649,-16.95663c-9.93922,-1.52976 -19.3212,-0.48732 -28.42561,3.12732z" fill="#fdff00"/><path d="M242.70963,200.56586l1.04244,2.08489l-4.65921,4.93464c-5.24823,1.81791 -10.69351,0.90896 -16.18963,-0.76488l-5.49188,-3.68245c-1.53188,-7.57466 -1.04245,-13.82931 1.59756,-19.31907c2.57432,-5.41773 7.29498,-9.1023 14.10687,-10.90963l0.21187,1.80733z" fill="#590000"/><path d="M239.09287,207.28132l4.65921,-4.93465c3.12309,4.93465 6.53009,9.1023 9.93498,12.23175c-0.55936,7.01953 -1.31788,12.35464 -3.12945,16.19387c-0.52546,1.11448 -1.18652,2.4705 -2.36245,2.84765c-1.81156,0.57843 -3.98332,0.55088 -5.69741,-0.27756c-11.60035,-5.59571 -19.59451,-16.39939 -25.0864,-30.50837l5.49188,3.68245c5.69953,1.61452 11.24015,2.64001 16.18963,0.76488z" fill="#000000"/><path d="M270.3375,226.80592c-6.59578,-2.98748 -12.29954,-7.29497 -16.95451,-12.2275l-1.32,-14.59419v-0.76277c6.80765,2.84976 13.83142,4.16977 21.1264,3.33497c7.57254,-1.04244 13.06443,-4.16977 16.39939,-9.58962l3.96001,-9.17434c1.80732,8.12977 1.37721,15.95869 -1.59757,23.97405c-2.72264,7.34582 -7.13394,13.20003 -12.99451,18.00119c-1.44925,1.17804 -3.14003,2.30311 -5.21432,2.08065c-1.18016,-0.12289 -2.32219,-0.54877 -3.40489,-1.04244z" fill="#5000ff"/><path d="M251.57566,197.92797l0.48732,2.36245l1.32,14.59419c-3.40489,-3.12945 -6.80978,-7.2971 -9.93498,-12.23175l-1.04244,-2.08488l-9.38198,-25.85129l-0.21188,-1.80733l-0.83268,-5.21221v-0.76276c-0.48944,-2.08488 0.08263,-3.01714 1.32,-3.56168c1.17804,-0.52334 2.08065,-0.12289 3.40065,1.68443l2.85188,4.44733l0.55512,0.76488c5.41985,9.17434 9.10441,17.71939 11.1893,26.12885z" fill="#62ff4f"/></g></g></svg>