<svg width="76" height="64" xmlns="http://www.w3.org/2000/svg" xmlns:xlink="http://www.w3.org/1999/xlink" overflow="hidden"><g transform="translate(-286 -8)"><path d="M287.5 66.5001 287.5 28.5001 310.833 28.5001 315.5 33.1668 315.5 66.5001Z" fill="#FFFFFF" fill-rule="evenodd"/><path d="M315.5 33.1668 311.767 32.2335 310.833 28.5001Z" fill="#CDCDCD" fill-rule="evenodd"/><path d="M315.5 33.1668 311.767 32.2335 310.833 28.5001 315.5 33.1668 315.5 66.5001 287.5 66.5001 287.5 28.5001 310.833 28.5001" stroke="#A5A5A5" stroke-width="0.666667" stroke-miterlimit="8" fill="none" fill-rule="evenodd"/><text font-family="Calibri,Calibri_MSFontService,sans-serif" font-weight="400" font-size="8" transform="translate(292.416 35)">-----</text><text font-family="Calibri,Calibri_MSFontService,sans-serif" font-weight="400" font-size="8" transform="translate(292.416 45)">-----</text><text font-family="Calibri,Calibri_MSFontService,sans-serif" font-weight="400" font-size="8" transform="translate(292.416 55)">-----</text><text font-family="Calibri,Calibri_MSFontService,sans-serif" font-weight="400" font-size="8" transform="translate(292.416 64)">-----</text><path d="M311.96 56.0658 313.537 49.5803 318.53 54.8867 311.96 56.0658Z" stroke="#000000" stroke-width="0.666667" stroke-miterlimit="8" fill-rule="evenodd"/><path d="M318.529 54.8867 313.537 49.5803 315.114 43.0948 325.099 53.7076 318.529 54.8867Z" stroke="#6C4F00" stroke-width="0.666667" stroke-miterlimit="8" fill="#FFC000" fill-rule="evenodd"/><path d="M325.099 53.7075 315.114 43.0948 347.217 12.8894 357.202 23.5022Z" stroke="#6C4F00" stroke-width="0.666667" stroke-miterlimit="8" fill="#FFC000" fill-rule="evenodd"/><path d="M357.323 23.3065 347.338 12.6937 349.848 10.3322 359.833 20.9449Z" stroke="#434343" stroke-width="0.666667" stroke-miterlimit="8" fill="#A5A5A5" fill-rule="evenodd"/><path d="M359.469 20.5581 350.212 10.7191 351.888 9.14196 361.146 18.9809Z" stroke="#434343" stroke-width="0.666667" stroke-miterlimit="8" fill="#FFFFFF" fill-rule="evenodd"/></g></svg>