<svg width="41" height="41" xmlns="http://www.w3.org/2000/svg" xmlns:xlink="http://www.w3.org/1999/xlink" overflow="hidden"><defs><clipPath id="clip0"><rect x="122" y="26" width="41" height="41"/></clipPath><radialGradient cx="0" cy="0" r="505184" gradientUnits="userSpaceOnUse" spreadMethod="pad" id="fill1" gradientTransform="matrix(0.000104987 0 0 0.000104987 124.5 27.5001)"><stop offset="0" stop-color="#99FF66"/><stop offset="0.43" stop-color="#92D050"/><stop offset="1" stop-color="#92D050"/></radialGradient></defs><g clip-path="url(#clip0)" transform="translate(-122 -26)"><path d="M124.5 33.6668C124.5 30.261 127.261 27.5001 130.667 27.5001L155.333 27.5001C158.739 27.5001 161.5 30.261 161.5 33.6668L161.5 59.3333C161.5 62.7391 158.739 65.5001 155.333 65.5001L130.667 65.5001C127.261 65.5001 124.5 62.7391 124.5 59.3333Z" stroke="#00B050" stroke-width="1.33333" stroke-miterlimit="8" fill="url(#fill1)" fill-rule="evenodd"/><path d="M155.423 48.2271C154.304 55.3288 147.639 60.1783 140.538 59.0589 133.436 57.9394 128.586 51.2748 129.706 44.1731 130.825 37.0714 137.49 32.2219 144.592 33.3414 148.409 33.9431 151.761 36.2097 153.742 39.5279L155.454 39.0822 153.362 43.388 148.255 40.9569 149.927 40.5214C146.791 36.4551 140.952 35.7011 136.886 38.8374 132.82 41.9737 132.066 47.8125 135.202 51.8788 138.338 55.9451 144.177 56.6991 148.243 53.5628 150.125 52.1116 151.379 49.9951 151.749 47.648Z" stroke="#D9D9D9" stroke-width="0.333333" stroke-miterlimit="8" fill="#FFFFFF" fill-rule="evenodd"/></g></svg>