<svg width="40" height="41" xmlns="http://www.w3.org/2000/svg" xmlns:xlink="http://www.w3.org/1999/xlink" overflow="hidden"><defs><clipPath id="clip0"><rect x="29" y="26" width="40" height="41"/></clipPath><radialGradient cx="0" cy="0" r="511875" gradientUnits="userSpaceOnUse" spreadMethod="pad" id="fill1" gradientTransform="matrix(0.000104987 0 0 0.000104987 30.5001 27.5001)"><stop offset="0" stop-color="#FF6565"/><stop offset="0.43" stop-color="#FF0000"/><stop offset="1" stop-color="#FF0000"/></radialGradient><clipPath id="clip2"><rect x="39" y="35" width="20" height="22"/></clipPath><clipPath id="clip3"><rect x="39" y="35" width="20" height="22"/></clipPath><clipPath id="clip4"><rect x="39" y="35" width="20" height="22"/></clipPath></defs><g clip-path="url(#clip0)" transform="translate(-29 -26)"><path d="M30.5001 33.8335C30.5001 30.3356 33.3356 27.5001 36.8335 27.5001L62.1666 27.5001C65.6645 27.5001 68.5001 30.3356 68.5001 33.8335L68.5001 59.1666C68.5001 62.6645 65.6645 65.5001 62.1666 65.5001L36.8335 65.5001C33.3356 65.5001 30.5001 62.6645 30.5001 59.1666Z" stroke="#C00000" stroke-width="1.33333" stroke-miterlimit="8" fill="url(#fill1)" fill-rule="evenodd"/><g clip-path="url(#clip2)"><g clip-path="url(#clip3)"><g clip-path="url(#clip4)"><path d="M13.7149 2.37233 13.7207 2.37462 13.7221 2.37462C14.2328 2.58219 14.7229 2.83173 15.1867 3.11675 15.647 3.39984 16.086 3.72349 16.498 4.08103 18.6039 5.90879 19.9365 8.60548 19.9365 11.6111L19.9365 11.6139 19.9354 11.6139C19.9343 14.3654 18.8183 16.8578 17.0145 18.6606 15.2134 20.4617 12.7236 21.5767 9.9742 21.5781L9.9742 21.5791 9.9684 21.5791 9.96577 21.5791 9.96577 21.5781C7.21464 21.5774 4.72289 20.4617 2.91971 18.6582L2.91884 18.6589C1.11777 16.8576 0.00263417 14.3675 0.00105367 11.6167L0 11.6167 0 11.6109 0 11.604 0.00105367 11.604C0.00175611 10.3927 0.218636 9.23136 0.614288 8.15943 0.775149 7.72286 0.967092 7.29946 1.1859 6.89327 2.30824 4.80824 4.15303 3.16803 6.38453 2.30788L6.84709 2.12929 6.84709 2.62398 6.84709 5.93865 6.84709 6.12989 6.68078 6.22981 6.67955 6.23052 6.67815 6.23139 6.67692 6.2321C6.42439 6.38681 6.18363 6.55961 5.95674 6.74576L5.95744 6.74646C5.72844 6.93595 5.51279 7.14018 5.31488 7.35706L5.31365 7.35706C4.28966 8.47658 3.66413 9.97033 3.66413 11.6104L3.66413 11.6132 3.6629 11.6132C3.66325 13.3517 4.37026 14.9282 5.51156 16.0693L5.51086 16.07C6.65093 17.2094 8.22528 17.915 9.96243 17.916L9.96243 17.915 9.96823 17.915 9.97086 17.915 9.97086 17.916C11.7106 17.9157 13.2869 17.2092 14.4268 16.069 15.5667 14.9287 16.2721 13.3544 16.2736 11.6163L16.2721 11.6163 16.2721 11.6105 16.2721 11.6062 16.2736 11.6062C16.2732 10.5007 15.9868 9.46001 15.4861 8.55719 15.4069 8.41477 15.3188 8.27024 15.2234 8.12642 14.7459 7.40904 14.1255 6.79335 13.4042 6.32359L13.2488 6.22226 13.2488 6.03927 13.2488 2.68738 13.2488 2.18566 13.7149 2.37233 13.7149 2.37233ZM8.34312 0 11.5932 0 11.9335 0 11.9335 0.340159 11.9335 9.11528 11.9335 9.45544 11.5932 9.45544 8.34312 9.45544 8.00296 9.45544 8.00296 9.11528 8.00296 0.340159 8.00296 0 8.34312 0 8.34312 0Z" stroke="#D9D9D9" stroke-width="0.333662" fill="#FFFFFF" transform="matrix(1 0 0 1.01951 39.0319 35)"/></g></g></g></g></svg>