<svg width="614" height="498" xmlns="http://www.w3.org/2000/svg" xmlns:xlink="http://www.w3.org/1999/xlink" overflow="hidden"><defs><clipPath id="clip0"><rect x="324" y="111" width="614" height="498"/></clipPath></defs><g clip-path="url(#clip0)" transform="translate(-324 -111)"><path d="M708.5 535.5 814.277 188.5 886.5 188.5 780.723 535.5Z" stroke="#787878" stroke-width="1.33333" stroke-miterlimit="8" fill="#A5A5A5" fill-rule="evenodd"/><path d="M0 347 105.777 0 178 0 72.2234 347Z" stroke="#787878" stroke-width="1.33333" stroke-miterlimit="8" fill="#A5A5A5" fill-rule="evenodd" transform="matrix(-1 0 0 1 777.5 188.5)"/><path d="M771.981 134.514C703.044 135.527 617.173 164.438 536.097 219.091 391.96 316.253 317.556 457.979 369.91 535.646 422.265 613.313 581.553 597.51 725.69 500.348 869.826 403.187 944.231 261.46 891.876 183.793 868.971 149.814 825.598 133.726 771.981 134.514ZM786.09 112.273C845.068 111.406 892.779 129.104 917.974 166.481 975.564 251.915 893.72 407.814 735.169 514.691 576.619 621.569 401.402 638.953 343.812 553.519 286.222 468.085 368.066 312.186 526.617 205.309 615.802 145.19 710.26 113.388 786.09 112.273Z" stroke="#BC8C00" stroke-width="1.33333" stroke-miterlimit="8" fill="#FFC000" fill-rule="evenodd" fill-opacity="0.501961"/><path d="M495.5 535.5 601.277 188.5 673.5 188.5 567.723 535.5Z" stroke="#787878" stroke-width="1.33333" stroke-miterlimit="8" fill="#A5A5A5" fill-rule="evenodd"/><path d="M0 347 105.777 0 178 0 72.2234 347Z" stroke="#787878" stroke-width="1.33333" stroke-miterlimit="8" fill="#A5A5A5" fill-rule="evenodd" transform="matrix(-1 0 0 1 564.5 188.5)"/></g></svg>